<?xml version="1.0" encoding="utf-8"?>
<!-- Generator: Adobe Illustrator 16.0.0, SVG Export Plug-In . SVG Version: 6.00 Build 0)  -->
<!DOCTYPE svg PUBLIC "-//W3C//DTD SVG 1.1//EN" "http://www.w3.org/Graphics/SVG/1.1/DTD/svg11.dtd">
<svg version="1.1" id="Layer_1" xmlns="http://www.w3.org/2000/svg" xmlns:xlink="http://www.w3.org/1999/xlink" x="0px" y="0px"
	 width="176px" height="41px" viewBox="0 0 176 41" enable-background="new 0 0 176 41" xml:space="preserve">
<path fill="#FFFFFF" d="M14.904,39.6c-0.033-0.031-0.048-0.074-0.048-0.123V35.33c0-0.051,0.016-0.09,0.048-0.123
	c0.031-0.033,0.071-0.049,0.121-0.049h2.708c0.045,0,0.085,0.016,0.119,0.049c0.034,0.033,0.05,0.072,0.05,0.123
	c0,0.047-0.017,0.086-0.05,0.121c-0.033,0.035-0.073,0.051-0.119,0.051h-2.539v1.727h1.863c0.049,0,0.09,0.016,0.122,0.047
	c0.031,0.033,0.047,0.076,0.047,0.125s-0.016,0.092-0.047,0.127c-0.032,0.033-0.073,0.051-0.122,0.051h-1.863v1.725h2.539
	c0.045,0,0.085,0.018,0.119,0.053c0.034,0.033,0.05,0.074,0.05,0.121c0,0.049-0.017,0.092-0.05,0.123
	c-0.033,0.031-0.073,0.049-0.119,0.049h-2.708C14.975,39.648,14.935,39.631,14.904,39.6"/>
<path fill="#FFFFFF" d="M26.929,39.6c-0.032-0.031-0.048-0.074-0.048-0.123V35.33c0-0.051,0.016-0.09,0.048-0.123
	c0.032-0.033,0.072-0.049,0.121-0.049c0.052,0,0.096,0.02,0.129,0.057l2.861,3.801V35.33c0-0.051,0.015-0.09,0.047-0.123
	c0.031-0.033,0.072-0.049,0.121-0.049c0.045,0,0.085,0.016,0.119,0.049s0.05,0.072,0.05,0.123v4.146c0,0.049-0.017,0.092-0.05,0.123
	s-0.073,0.049-0.119,0.049c-0.052,0-0.093-0.018-0.124-0.051l-2.865-3.807v3.686c0,0.049-0.017,0.092-0.048,0.123
	c-0.032,0.031-0.073,0.049-0.121,0.049C27,39.648,26.96,39.631,26.929,39.6"/>
<path fill="#FFFFFF" d="M42.635,35.201c0.028,0.029,0.043,0.066,0.043,0.113c0,0.045-0.015,0.082-0.043,0.111
	s-0.065,0.043-0.109,0.043h-1.425v4.008c0,0.049-0.016,0.092-0.047,0.123c-0.033,0.031-0.073,0.049-0.122,0.049
	c-0.048,0-0.089-0.018-0.121-0.049c-0.031-0.031-0.048-0.074-0.048-0.123v-4.008h-1.424c-0.045,0-0.081-0.014-0.109-0.043
	s-0.043-0.066-0.043-0.111c0-0.047,0.015-0.084,0.043-0.113s0.064-0.043,0.109-0.043h3.187
	C42.57,35.158,42.606,35.172,42.635,35.201"/>
<path fill="#FFFFFF" d="M51.536,39.6c-0.032-0.031-0.047-0.074-0.047-0.123V35.33c0-0.051,0.016-0.09,0.047-0.123
	c0.032-0.033,0.072-0.049,0.121-0.049h2.709c0.045,0,0.083,0.016,0.117,0.049c0.035,0.033,0.05,0.072,0.05,0.123
	c0,0.047-0.016,0.086-0.05,0.121c-0.034,0.035-0.072,0.051-0.117,0.051h-2.54v1.727h1.864c0.049,0,0.089,0.016,0.121,0.047
	c0.033,0.033,0.048,0.076,0.048,0.125s-0.016,0.092-0.048,0.127c-0.031,0.033-0.071,0.051-0.121,0.051h-1.864v1.725h2.54
	c0.045,0,0.083,0.018,0.117,0.053c0.035,0.033,0.05,0.074,0.05,0.121c0,0.049-0.016,0.092-0.05,0.123
	c-0.034,0.031-0.072,0.049-0.117,0.049h-2.709C51.608,39.648,51.568,39.631,51.536,39.6"/>
<path fill="#FFFFFF" d="M66.232,39.516c0,0.043-0.017,0.074-0.048,0.098c-0.033,0.023-0.078,0.035-0.138,0.035
	c-0.038,0-0.068-0.008-0.09-0.023c-0.022-0.014-0.044-0.037-0.062-0.068l-1.036-1.691h-0.102h-0.905v1.611
	c0,0.049-0.016,0.092-0.045,0.123s-0.071,0.049-0.124,0.049c-0.049,0-0.089-0.018-0.121-0.049c-0.032-0.031-0.048-0.074-0.048-0.123
	V35.33c0-0.053,0.016-0.096,0.048-0.127c0.032-0.029,0.072-0.045,0.121-0.045h1.074c0.271,0,0.512,0.057,0.728,0.172
	c0.213,0.115,0.38,0.277,0.5,0.482c0.12,0.207,0.18,0.443,0.18,0.709c0,0.313-0.085,0.584-0.255,0.813
	c-0.171,0.229-0.401,0.385-0.691,0.469l0.969,1.58C66.216,39.438,66.232,39.48,66.232,39.516 M64.756,37.521
	c0.207,0,0.391-0.043,0.552-0.127s0.289-0.203,0.38-0.355c0.092-0.154,0.138-0.326,0.138-0.518c0-0.197-0.045-0.371-0.138-0.527
	c-0.091-0.154-0.218-0.275-0.38-0.363c-0.162-0.086-0.345-0.129-0.552-0.129h-0.905v2.02H64.756z"/>
<path fill="#FFFFFF" d="M78.068,35.201c0.028,0.029,0.043,0.066,0.043,0.113c0,0.045-0.015,0.082-0.043,0.111
	s-0.065,0.043-0.109,0.043h-1.425v4.008c0,0.049-0.016,0.092-0.047,0.123c-0.033,0.031-0.072,0.049-0.122,0.049
	c-0.048,0-0.089-0.018-0.121-0.049c-0.032-0.031-0.048-0.074-0.048-0.123v-4.008h-1.424c-0.045,0-0.081-0.014-0.109-0.043
	c-0.028-0.029-0.043-0.066-0.043-0.111c0-0.047,0.015-0.084,0.043-0.113c0.029-0.029,0.064-0.043,0.109-0.043h3.188
	C78.003,35.158,78.04,35.172,78.068,35.201"/>
<path fill="#FFFFFF" d="M89.623,39.477c0,0.045-0.018,0.086-0.051,0.121c-0.034,0.033-0.073,0.051-0.118,0.051
	c-0.075,0-0.128-0.037-0.157-0.109l-0.417-1.018h-2.292l-0.416,1.018c-0.027,0.072-0.079,0.109-0.159,0.109
	c-0.052,0-0.093-0.018-0.124-0.051c-0.031-0.035-0.044-0.076-0.044-0.121c0-0.027,0.004-0.053,0.016-0.074l1.707-4.125
	c0.031-0.078,0.085-0.119,0.163-0.119c0.075,0,0.13,0.041,0.164,0.119l1.711,4.125C89.617,39.424,89.623,39.449,89.623,39.477
	 M86.718,38.211h2.032l-1.019-2.484L86.718,38.211z"/>
<path fill="#FFFFFF" d="M98.471,39.6c-0.033-0.031-0.049-0.074-0.049-0.123V35.33c0-0.051,0.016-0.09,0.049-0.123
	c0.031-0.033,0.071-0.049,0.12-0.049s0.09,0.016,0.121,0.049c0.032,0.033,0.047,0.072,0.047,0.123v4.146
	c0,0.049-0.015,0.092-0.047,0.123c-0.031,0.031-0.072,0.049-0.121,0.049S98.502,39.631,98.471,39.6"/>
<path fill="#FFFFFF" d="M108.097,39.6c-0.033-0.031-0.049-0.074-0.049-0.123V35.33c0-0.051,0.016-0.09,0.049-0.123
	c0.032-0.033,0.072-0.049,0.12-0.049c0.054,0,0.097,0.02,0.13,0.057l2.86,3.801V35.33c0-0.051,0.016-0.09,0.047-0.123
	c0.033-0.033,0.074-0.049,0.122-0.049c0.044,0,0.084,0.016,0.118,0.049s0.051,0.072,0.051,0.123v4.146
	c0,0.049-0.017,0.092-0.051,0.123s-0.074,0.049-0.118,0.049c-0.053,0-0.095-0.018-0.124-0.051l-2.866-3.807v3.686
	c0,0.049-0.016,0.092-0.047,0.123c-0.032,0.031-0.073,0.049-0.122,0.049C108.169,39.648,108.129,39.631,108.097,39.6"/>
<path fill="#FFFFFF" d="M125.186,35.207c0.029,0.033,0.045,0.072,0.045,0.123v4.146c0,0.049-0.016,0.092-0.045,0.123
	c-0.03,0.031-0.07,0.049-0.119,0.049c-0.048,0-0.09-0.018-0.123-0.049c-0.034-0.031-0.051-0.074-0.051-0.123v-3.525l-1.711,3.561
	c-0.027,0.053-0.075,0.078-0.146,0.078c-0.068,0-0.121-0.035-0.157-0.109l-1.707-3.477v3.473c0,0.049-0.016,0.092-0.047,0.123
	c-0.032,0.031-0.072,0.049-0.122,0.049c-0.049,0-0.089-0.018-0.121-0.049s-0.047-0.074-0.047-0.123V35.33
	c0-0.051,0.015-0.09,0.047-0.123c0.032-0.031,0.072-0.049,0.121-0.049c0.075,0,0.126,0.029,0.152,0.086l1.891,3.818l1.87-3.818
	c0.034-0.057,0.085-0.086,0.151-0.086C125.115,35.158,125.155,35.176,125.186,35.207"/>
<path fill="#FFFFFF" d="M134.566,39.6c-0.032-0.031-0.047-0.074-0.047-0.123V35.33c0-0.051,0.015-0.09,0.047-0.123
	c0.033-0.033,0.073-0.049,0.121-0.049h2.709c0.045,0,0.084,0.016,0.117,0.049c0.035,0.033,0.052,0.072,0.052,0.123
	c0,0.047-0.017,0.086-0.052,0.121c-0.033,0.035-0.072,0.051-0.117,0.051h-2.54v1.727h1.864c0.049,0,0.089,0.016,0.12,0.047
	c0.033,0.033,0.049,0.076,0.049,0.125s-0.016,0.092-0.049,0.127c-0.031,0.033-0.071,0.051-0.12,0.051h-1.864v1.725h2.54
	c0.045,0,0.084,0.018,0.117,0.053c0.035,0.033,0.052,0.074,0.052,0.121c0,0.049-0.017,0.092-0.052,0.123
	c-0.033,0.031-0.072,0.049-0.117,0.049h-2.709C134.64,39.648,134.6,39.631,134.566,39.6"/>
<path fill="#FFFFFF" d="M146.593,39.6c-0.033-0.031-0.049-0.074-0.049-0.123V35.33c0-0.051,0.016-0.09,0.049-0.123
	c0.032-0.033,0.071-0.049,0.12-0.049c0.053,0,0.097,0.02,0.13,0.057l2.86,3.801V35.33c0-0.051,0.016-0.09,0.048-0.123
	c0.031-0.033,0.072-0.049,0.121-0.049c0.044,0,0.084,0.016,0.118,0.049c0.033,0.033,0.051,0.072,0.051,0.123v4.146
	c0,0.049-0.018,0.092-0.051,0.123c-0.034,0.031-0.074,0.049-0.118,0.049c-0.053,0-0.095-0.018-0.124-0.051l-2.866-3.807v3.686
	c0,0.049-0.016,0.092-0.048,0.123s-0.072,0.049-0.121,0.049S146.625,39.631,146.593,39.6"/>
<path fill="#FFFFFF" d="M162.299,35.201c0.027,0.029,0.042,0.066,0.042,0.113c0,0.045-0.015,0.082-0.042,0.111
	c-0.028,0.029-0.066,0.043-0.11,0.043h-1.424v4.008c0,0.049-0.016,0.092-0.049,0.123c-0.031,0.031-0.072,0.049-0.12,0.049
	c-0.049,0-0.09-0.018-0.122-0.049c-0.031-0.031-0.047-0.074-0.047-0.123v-4.008h-1.425c-0.045,0-0.081-0.014-0.109-0.043
	c-0.027-0.029-0.042-0.066-0.042-0.111c0-0.047,0.015-0.084,0.042-0.113c0.028-0.029,0.064-0.043,0.109-0.043h3.187
	C162.232,35.158,162.271,35.172,162.299,35.201"/>
<path fill="#ED1C24" d="M46.723,12.989c0.18-0.923,0.292-1.571,0.337-1.944c0.044-0.371,0.125-0.936,0.241-1.694
	c1.744-0.41,3.284-0.699,4.618-0.866c1.335-0.166,2.624-0.251,3.869-0.251c1.411,0,2.707,0.165,3.887,0.492
	c1.18,0.327,2.104,0.849,2.771,1.568c0.666,0.718,1.001,1.75,1.001,3.098c0,0.731-0.102,2.594-0.307,5.59
	c-0.204,2.995-0.324,6.091-0.363,9.284c-0.975-0.023-1.875-0.037-2.696-0.037c-0.784,0-1.701,0.014-2.755,0.037
	c0.169-1.551,0.307-3.348,0.409-5.387l0.253-4.792c-0.488,0.321-0.859,0.546-1.117,0.674c-0.257,0.128-0.545,0.247-0.867,0.355
	c-0.32,0.109-0.886,0.276-1.695,0.501c-0.808,0.225-1.458,0.42-1.946,0.587c-0.487,0.166-0.927,0.355-1.319,0.567
	c-0.392,0.212-0.722,0.45-0.991,0.711c-0.271,0.264-0.466,0.539-0.588,0.828c-0.123,0.289-0.183,0.6-0.183,0.934
	c0,0.539,0.156,1.002,0.471,1.395c0.314,0.391,0.708,0.664,1.183,0.818c0.474,0.152,1.033,0.23,1.674,0.23
	c0.411,0,0.844-0.031,1.299-0.096s1.067-0.225,1.837-0.48c-0.27,0.73-0.583,1.822-0.942,3.271c-0.911,0.152-1.636,0.248-2.174,0.287
	c-0.54,0.039-1.04,0.057-1.501,0.057c-1.617,0-2.945-0.217-3.984-0.652c-1.039-0.438-1.806-1.129-2.299-2.08
	c-0.495-0.949-0.741-1.904-0.741-2.865c0-0.551,0.096-1.098,0.289-1.637c0.192-0.539,0.476-1.032,0.847-1.481
	s0.853-0.883,1.445-1.299c0.59-0.417,1.443-0.821,2.561-1.212c1.117-0.391,2.592-0.786,4.428-1.184
	c0.488-0.103,0.996-0.227,1.521-0.375c0.527-0.148,0.948-0.292,1.261-0.434c0.316-0.142,0.588-0.323,0.819-0.549
	c0.231-0.224,0.401-0.459,0.51-0.702c0.109-0.244,0.165-0.493,0.165-0.75c0-0.5-0.165-0.923-0.491-1.27
	c-0.328-0.346-0.751-0.587-1.271-0.721c-0.521-0.136-1.096-0.203-1.724-0.203C52.127,11.315,49.548,11.873,46.723,12.989"/>
<path fill="#FFFFFF" d="M88.848,28.268c0.191-2.166,0.425-6.064,0.699-11.689C89.821,10.953,89.99,6.094,90.055,2
	c1.336,0.027,2.285,0.038,2.852,0.038c0.758,0,1.682-0.011,2.772-0.038l-0.46,7.025l-0.67,15.665l-0.076,3.578
	c-1.053-0.023-1.945-0.037-2.678-0.037C91.551,28.23,90.568,28.244,88.848,28.268"/>
<path fill="#FFFFFF" d="M109.804,8.236c1.476,0,2.891,0.22,4.244,0.664c1.353,0.442,2.501,1.097,3.444,1.962
	c0.943,0.866,1.651,1.925,2.127,3.175c0.473,1.252,0.711,2.57,0.711,3.955c0,1.463-0.25,2.875-0.749,4.233
	c-0.501,1.361-1.226,2.537-2.176,3.531c-0.949,0.996-2.133,1.738-3.551,2.234c-1.417,0.492-2.928,0.738-4.531,0.738
	c-1.488,0-2.903-0.221-4.243-0.662c-1.34-0.443-2.485-1.107-3.435-1.992c-0.95-0.885-1.671-1.963-2.166-3.232
	c-0.494-1.27-0.74-2.598-0.74-3.983c0-1.412,0.224-2.759,0.674-4.042c0.449-1.282,1.151-2.424,2.107-3.425
	c0.955-1,2.178-1.777,3.666-2.328C106.673,8.512,108.214,8.236,109.804,8.236 M109.804,12.2c-1.112,0-2.106,0.273-2.982,0.817
	c-0.875,0.546-1.527,1.358-1.956,2.435c-0.428,1.078-0.642,2.251-0.642,3.521c0,1.116,0.175,2.111,0.527,2.984
	c0.352,0.871,0.928,1.578,1.725,2.115c0.8,0.539,1.75,0.809,2.849,0.809c1.125,0,2.111-0.279,2.962-0.836
	c0.85-0.559,1.489-1.379,1.917-2.463c0.429-1.085,0.643-2.282,0.643-3.59c0-1.064-0.166-2.033-0.497-2.905
	c-0.334-0.872-0.893-1.571-1.679-2.098C111.884,12.463,110.928,12.2,109.804,12.2"/>
<path fill="#FFFFFF" d="M138.958,23.824c-0.063,0.523-0.161,1.121-0.289,1.787c-0.128,0.668-0.262,1.496-0.403,2.484
	c-1.835,0.422-3.644,0.633-5.427,0.633c-1.04,0-2.04-0.096-3.001-0.287c-0.964-0.191-1.858-0.535-2.686-1.029
	s-1.556-1.145-2.185-1.953s-1.1-1.787-1.414-2.936c-0.315-1.146-0.473-2.331-0.473-3.549c0-1.617,0.261-3.169,0.78-4.658
	s1.28-2.704,2.281-3.647c1-0.942,2.112-1.583,3.338-1.924c1.226-0.34,2.589-0.511,4.089-0.511c0.835,0,1.694,0.049,2.579,0.145
	c0.886,0.097,1.931,0.293,3.137,0.588l0.289,4.215c-1.908-0.655-3.572-0.982-4.995-0.982c-0.871,0-1.693,0.148-2.468,0.443
	c-0.776,0.295-1.441,0.76-1.999,1.395c-0.556,0.636-0.953,1.37-1.19,2.204c-0.236,0.833-0.355,1.687-0.355,2.559
	c0,1.219,0.189,2.276,0.566,3.167c0.378,0.891,1.028,1.58,1.949,2.068c0.923,0.486,1.974,0.73,3.15,0.73
	c0.577,0,1.278-0.074,2.104-0.223C137.162,24.396,138.036,24.156,138.958,23.824"/>
<path fill="#FFFFFF" d="M142.885,28.268l0.384-5.002l0.44-9.603l0.211-8.218c0.024-1.488,0.038-2.636,0.038-3.445
	c1.343,0.026,2.296,0.04,2.859,0.04c0.665,0,1.542-0.014,2.629-0.04l-0.401,6.254l-0.46,9.969l-0.192,7.446l-0.019,2.598
	c-1.139-0.023-2.034-0.037-2.687-0.037C144.945,28.23,144.012,28.244,142.885,28.268 M149.005,17.309l3.922-4.767
	c0.335-0.409,0.734-0.916,1.197-1.518c0.464-0.603,1.05-1.378,1.759-2.327c1.333,0.026,2.307,0.039,2.922,0.039
	c0.846,0,1.915-0.013,3.208-0.039l-6.341,7.266l-1.138,1.384c0.938,1.489,3.54,5.129,7.807,10.92
	c-1.156-0.023-2.146-0.037-2.969-0.037c-0.821,0-1.842,0.014-3.063,0.037c-0.746-1.219-1.354-2.199-1.821-2.938
	c-0.47-0.738-0.903-1.383-1.301-1.934l-3.277-4.682C149.82,18.587,149.518,18.118,149.005,17.309"/>
<path fill="#ED1C24" d="M35.095,2v1.947c0,0.566-0.026,1.742-0.08,3.528l-0.237,5.206H21.677l0.059-2.001L22.245,2
	c-1.46,0.026-2.427,0.04-2.9,0.04c-0.627,0-1.696-0.014-3.207-0.04l0.02,2.117c0,1.27-0.052,3.519-0.156,6.745
	c-0.104,3.227-0.278,6.726-0.526,10.497l-0.447,6.908c1.617-0.023,2.6-0.037,2.946-0.037l3.159,0.037l0.078-4.367l0.271-7.082h13.14
	c-0.091,4.001-0.304,7.82-0.639,11.449c1.759-0.023,2.825-0.037,3.198-0.037l3.004,0.037c0-0.424,0.012-1.57,0.036-3.445
	l0.072-4.559l0.271-7.775l0.171-2.819C36.331,7.003,35.095,2,35.095,2"/>
<path fill="#ED1C24" d="M81.839,8.697c-0.308,0.835-0.564,1.508-0.771,2.022L76.73,21.717l-0.617,1.676L71.611,8.697
	c-0.912,0.026-1.805,0.038-2.677,0.038c-0.823,0-1.798-0.012-2.928-0.038c3.71,10.341,5.991,16.863,6.838,19.57
	c1.206-0.023,2.22-0.037,3.042-0.037c0.782,0,1.75,0.014,2.905,0.037l1.019-2.482l4.538-10.294l0.543-1.18
	C82.656,12.167,81.839,8.697,81.839,8.697"/>
<path fill="#ED1C24" d="M83.15,7.529c0,0,0.34,3.233,2.308,4.67l1.12-7.666L77.168,6.45L83.15,7.529z"/>
<polygon fill="#B11F24" points="77.168,6.45 86.577,4.534 83.15,7.529 "/>
</svg>
