<?xml version="1.0" encoding="utf-8"?>
<!-- Generator: Adobe Illustrator 16.0.0, SVG Export Plug-In . SVG Version: 6.00 Build 0)  -->
<!DOCTYPE svg PUBLIC "-//W3C//DTD SVG 1.1//EN" "http://www.w3.org/Graphics/SVG/1.1/DTD/svg11.dtd">
<svg version="1.1" id="Layer_1" xmlns="http://www.w3.org/2000/svg" xmlns:xlink="http://www.w3.org/1999/xlink" x="0px" y="0px"
	 width="176px" height="41px" viewBox="0 0 176 41" enable-background="new 0 0 176 41" xml:space="preserve">
<path d="M15.41,38.953c-0.032-0.033-0.047-0.074-0.047-0.123v-4.082c0-0.051,0.015-0.092,0.047-0.123
	c0.032-0.033,0.071-0.049,0.119-0.049h2.667c0.044,0,0.083,0.016,0.116,0.049c0.034,0.031,0.05,0.072,0.05,0.123
	c0,0.045-0.016,0.084-0.05,0.119c-0.033,0.033-0.072,0.049-0.116,0.049h-2.501v1.699h1.835c0.048,0,0.088,0.016,0.119,0.049
	c0.031,0.031,0.047,0.072,0.047,0.123c0,0.049-0.016,0.09-0.047,0.123c-0.031,0.033-0.071,0.051-0.119,0.051h-1.835v1.699h2.501
	c0.044,0,0.083,0.018,0.116,0.051c0.034,0.033,0.05,0.074,0.05,0.119c0,0.049-0.016,0.09-0.05,0.123
	C18.279,38.984,18.241,39,18.196,39h-2.667C15.48,39,15.441,38.984,15.41,38.953"/>
<path d="M27.255,38.953c-0.032-0.033-0.047-0.074-0.047-0.123v-4.082c0-0.051,0.016-0.092,0.047-0.123
	c0.031-0.033,0.071-0.049,0.119-0.049c0.052,0,0.094,0.02,0.127,0.057l2.817,3.744v-3.629c0-0.051,0.016-0.092,0.047-0.123
	c0.031-0.033,0.071-0.049,0.119-0.049c0.044,0,0.083,0.016,0.116,0.049c0.033,0.031,0.05,0.072,0.05,0.123v4.082
	c0,0.049-0.017,0.09-0.05,0.123C30.568,38.984,30.529,39,30.485,39c-0.052,0-0.093-0.018-0.122-0.051l-2.823-3.75v3.631
	c0,0.049-0.016,0.09-0.047,0.123C27.462,38.984,27.422,39,27.374,39C27.326,39,27.286,38.984,27.255,38.953"/>
<path d="M42.726,34.619c0.027,0.029,0.042,0.066,0.042,0.111s-0.015,0.082-0.042,0.109c-0.028,0.027-0.064,0.043-0.108,0.043h-1.403
	v3.947c0,0.049-0.015,0.09-0.046,0.123C41.136,38.984,41.096,39,41.048,39s-0.088-0.016-0.12-0.047
	c-0.031-0.033-0.047-0.074-0.047-0.123v-3.947h-1.403c-0.044,0-0.08-0.016-0.108-0.043c-0.027-0.027-0.042-0.064-0.042-0.109
	s0.015-0.082,0.042-0.111c0.028-0.027,0.063-0.043,0.108-0.043h3.139C42.662,34.576,42.698,34.592,42.726,34.619"/>
<path d="M51.493,38.953c-0.032-0.033-0.047-0.074-0.047-0.123v-4.082c0-0.051,0.015-0.092,0.047-0.123
	c0.032-0.033,0.072-0.049,0.119-0.049h2.668c0.044,0,0.083,0.016,0.116,0.049c0.033,0.031,0.049,0.072,0.049,0.123
	c0,0.045-0.016,0.084-0.049,0.119c-0.034,0.033-0.072,0.049-0.116,0.049h-2.501v1.699h1.835c0.048,0,0.089,0.016,0.12,0.049
	c0.031,0.031,0.047,0.072,0.047,0.123c0,0.049-0.016,0.09-0.047,0.123c-0.031,0.033-0.071,0.051-0.12,0.051h-1.835v1.699h2.501
	c0.044,0,0.083,0.018,0.116,0.051c0.033,0.033,0.049,0.074,0.049,0.119c0,0.049-0.016,0.09-0.049,0.123
	C54.362,38.984,54.324,39,54.28,39h-2.668C51.565,39,51.525,38.984,51.493,38.953"/>
<path d="M65.969,38.871c0,0.041-0.017,0.072-0.048,0.096C65.889,38.988,65.845,39,65.786,39c-0.037,0-0.067-0.008-0.089-0.023
	c-0.021-0.014-0.042-0.037-0.061-0.068l-1.021-1.662h-0.1h-0.893v1.584c0,0.049-0.015,0.09-0.044,0.123
	C63.55,38.984,63.508,39,63.457,39c-0.048,0-0.087-0.016-0.119-0.047c-0.032-0.033-0.047-0.074-0.047-0.123v-4.082
	c0-0.055,0.015-0.096,0.047-0.125c0.032-0.031,0.071-0.047,0.119-0.047h1.059c0.266,0,0.505,0.057,0.716,0.172
	c0.21,0.111,0.375,0.27,0.493,0.475c0.118,0.203,0.177,0.436,0.177,0.697c0,0.309-0.083,0.576-0.252,0.801
	c-0.169,0.225-0.395,0.379-0.68,0.461l0.954,1.559C65.954,38.793,65.969,38.836,65.969,38.871 M64.516,36.904
	c0.204,0,0.384-0.041,0.544-0.125c0.159-0.082,0.283-0.199,0.375-0.35c0.09-0.152,0.135-0.322,0.135-0.51
	c0-0.193-0.044-0.367-0.135-0.518c-0.091-0.154-0.215-0.273-0.375-0.357c-0.16-0.086-0.34-0.129-0.544-0.129h-0.893v1.988H64.516z"
	/>
<path d="M77.628,34.619c0.027,0.029,0.041,0.066,0.041,0.111s-0.014,0.082-0.041,0.109c-0.029,0.027-0.065,0.043-0.108,0.043h-1.404
	v3.947c0,0.049-0.015,0.09-0.047,0.123C76.038,38.984,75.998,39,75.951,39c-0.048,0-0.088-0.016-0.121-0.047
	c-0.03-0.033-0.046-0.074-0.046-0.123v-3.947h-1.403c-0.044,0-0.08-0.016-0.109-0.043c-0.027-0.027-0.041-0.064-0.041-0.109
	s0.014-0.082,0.041-0.111c0.029-0.027,0.064-0.043,0.109-0.043h3.139C77.563,34.576,77.6,34.592,77.628,34.619"/>
<path d="M89.01,38.83c0,0.045-0.018,0.086-0.051,0.119S88.889,39,88.844,39c-0.074,0-0.127-0.035-0.156-0.107l-0.41-1.002H86.02
	l-0.41,1.002C85.583,38.965,85.532,39,85.456,39c-0.053,0-0.093-0.018-0.122-0.051c-0.03-0.033-0.045-0.074-0.045-0.119
	c0-0.025,0.005-0.051,0.017-0.072l1.681-4.063c0.03-0.078,0.083-0.119,0.161-0.119c0.074,0,0.127,0.041,0.16,0.119l1.686,4.063
	C89.004,38.779,89.01,38.805,89.01,38.83 M86.148,37.584h2.002l-1.004-2.445L86.148,37.584z"/>
<path d="M97.725,38.953c-0.031-0.033-0.047-0.074-0.047-0.123v-4.082c0-0.051,0.016-0.092,0.047-0.123
	c0.031-0.033,0.07-0.049,0.119-0.049c0.047,0,0.086,0.016,0.119,0.049c0.031,0.031,0.047,0.072,0.047,0.123v4.082
	c0,0.049-0.016,0.09-0.047,0.123C97.93,38.984,97.891,39,97.844,39C97.795,39,97.756,38.984,97.725,38.953"/>
<path d="M107.207,38.953c-0.033-0.033-0.049-0.074-0.049-0.123v-4.082c0-0.051,0.016-0.092,0.049-0.123
	c0.029-0.033,0.07-0.049,0.119-0.049c0.051,0,0.094,0.02,0.127,0.057l2.816,3.744v-3.629c0-0.051,0.016-0.092,0.047-0.123
	c0.031-0.033,0.072-0.049,0.119-0.049c0.045,0,0.084,0.016,0.117,0.049c0.033,0.031,0.049,0.072,0.049,0.123v4.082
	c0,0.049-0.016,0.09-0.049,0.123C110.52,38.984,110.48,39,110.436,39c-0.051,0-0.092-0.018-0.121-0.051l-2.822-3.75v3.631
	c0,0.049-0.018,0.09-0.047,0.123c-0.031,0.031-0.072,0.047-0.119,0.047C107.277,39,107.236,38.984,107.207,38.953"/>
<path d="M124.039,34.625c0.029,0.031,0.043,0.072,0.043,0.123v4.082c0,0.049-0.014,0.09-0.043,0.123
	c-0.029,0.031-0.07,0.047-0.117,0.047s-0.088-0.016-0.121-0.047c-0.033-0.033-0.051-0.074-0.051-0.123v-3.473l-1.686,3.506
	c-0.025,0.055-0.074,0.08-0.145,0.08c-0.066,0-0.117-0.037-0.154-0.107l-1.682-3.426v3.42c0,0.049-0.016,0.09-0.047,0.123
	c-0.031,0.031-0.07,0.047-0.119,0.047s-0.088-0.016-0.119-0.047c-0.031-0.033-0.047-0.074-0.047-0.123v-4.082
	c0-0.051,0.016-0.092,0.047-0.123s0.07-0.049,0.119-0.049c0.074,0,0.125,0.029,0.15,0.086l1.863,3.76l1.842-3.76
	c0.033-0.057,0.082-0.086,0.148-0.086C123.969,34.576,124.01,34.594,124.039,34.625"/>
<path d="M133.279,38.953c-0.031-0.033-0.047-0.074-0.047-0.123v-4.082c0-0.051,0.016-0.092,0.047-0.123
	c0.031-0.033,0.07-0.049,0.119-0.049h2.668c0.045,0,0.084,0.016,0.115,0.049c0.035,0.031,0.051,0.072,0.051,0.123
	c0,0.045-0.016,0.084-0.051,0.119c-0.031,0.033-0.07,0.049-0.115,0.049h-2.502v1.699h1.836c0.049,0,0.09,0.016,0.119,0.049
	c0.031,0.031,0.047,0.072,0.047,0.123c0,0.049-0.016,0.09-0.047,0.123c-0.029,0.033-0.07,0.051-0.119,0.051h-1.836v1.699h2.502
	c0.045,0,0.084,0.018,0.115,0.051c0.035,0.033,0.051,0.074,0.051,0.119c0,0.049-0.016,0.09-0.051,0.123
	c-0.031,0.031-0.07,0.047-0.115,0.047h-2.668C133.35,39,133.311,38.984,133.279,38.953"/>
<path d="M145.125,38.953c-0.031-0.033-0.047-0.074-0.047-0.123v-4.082c0-0.051,0.016-0.092,0.047-0.123
	c0.031-0.033,0.07-0.049,0.119-0.049c0.051,0,0.094,0.02,0.127,0.057l2.818,3.744v-3.629c0-0.051,0.016-0.092,0.047-0.123
	c0.031-0.033,0.07-0.049,0.119-0.049c0.043,0,0.082,0.016,0.115,0.049c0.033,0.031,0.051,0.072,0.051,0.123v4.082
	c0,0.049-0.018,0.09-0.051,0.123c-0.033,0.031-0.072,0.047-0.115,0.047c-0.053,0-0.094-0.018-0.123-0.051l-2.822-3.75v3.631
	c0,0.049-0.016,0.09-0.047,0.123c-0.031,0.031-0.072,0.047-0.119,0.047C145.195,39,145.156,38.984,145.125,38.953"/>
<path d="M160.596,34.619c0.027,0.029,0.041,0.066,0.041,0.111s-0.014,0.082-0.041,0.109s-0.064,0.043-0.109,0.043h-1.402v3.947
	c0,0.049-0.016,0.09-0.047,0.123c-0.031,0.031-0.072,0.047-0.119,0.047s-0.088-0.016-0.119-0.047
	c-0.031-0.033-0.047-0.074-0.047-0.123v-3.947h-1.402c-0.045,0-0.08-0.016-0.109-0.043c-0.027-0.027-0.041-0.064-0.041-0.109
	s0.014-0.082,0.041-0.111c0.029-0.027,0.064-0.043,0.109-0.043h3.137C160.531,34.576,160.568,34.592,160.596,34.619"/>
<path fill="#ED1C24" d="M46.752,12.74c0.177-0.909,0.287-1.548,0.332-1.915c0.043-0.366,0.123-0.922,0.237-1.668
	c1.719-0.404,3.235-0.688,4.549-0.853c1.314-0.164,2.584-0.247,3.81-0.247c1.39,0,2.667,0.163,3.83,0.485
	c1.162,0.322,2.073,0.837,2.729,1.544c0.657,0.708,0.986,1.725,0.986,3.052c0,0.721-0.1,2.556-0.301,5.507
	c-0.201,2.951-0.321,5.998-0.358,9.146c-0.96-0.025-1.847-0.039-2.656-0.039c-0.771,0-1.675,0.014-2.713,0.039
	c0.167-1.529,0.301-3.299,0.402-5.309l0.25-4.72c-0.482,0.317-0.847,0.538-1.101,0.665c-0.253,0.126-0.538,0.243-0.854,0.35
	c-0.315,0.108-0.873,0.272-1.669,0.495c-0.796,0.219-1.436,0.412-1.917,0.578c-0.48,0.162-0.913,0.35-1.3,0.559
	c-0.385,0.209-0.71,0.441-0.976,0.699c-0.266,0.26-0.459,0.533-0.579,0.816c-0.121,0.285-0.18,0.592-0.18,0.92
	c0,0.529,0.154,0.988,0.464,1.373c0.31,0.387,0.698,0.654,1.165,0.807c0.468,0.152,1.018,0.227,1.649,0.227
	c0.405,0,0.832-0.031,1.281-0.094c0.448-0.063,1.051-0.223,1.809-0.475c-0.265,0.721-0.575,1.795-0.928,3.223
	c-0.897,0.152-1.612,0.246-2.142,0.285c-0.532,0.037-1.024,0.055-1.479,0.055c-1.593,0-2.9-0.215-3.924-0.643
	c-1.023-0.432-1.779-1.113-2.265-2.049c-0.487-0.936-0.729-1.875-0.729-2.822c0-0.545,0.094-1.082,0.283-1.611
	c0.19-0.531,0.469-1.018,0.835-1.461c0.366-0.441,0.84-0.868,1.422-1.279c0.582-0.41,1.421-0.808,2.522-1.194
	c1.1-0.385,2.554-0.774,4.362-1.165c0.48-0.102,0.98-0.224,1.498-0.37c0.519-0.146,0.933-0.288,1.242-0.426
	c0.31-0.14,0.579-0.319,0.806-0.541c0.228-0.221,0.396-0.453,0.503-0.692c0.107-0.24,0.162-0.486,0.162-0.739
	c0-0.493-0.162-0.91-0.483-1.251c-0.323-0.34-0.74-0.578-1.252-0.71c-0.512-0.133-1.079-0.2-1.698-0.2
	C52.076,11.09,49.535,11.641,46.752,12.74"/>
<path fill="#58595B" d="M88.246,27.791c0.188-2.135,0.418-5.975,0.688-11.516c0.271-5.541,0.438-10.327,0.502-14.359
	c1.314,0.025,2.25,0.038,2.809,0.038c0.744,0,1.654-0.013,2.73-0.038l-0.453,6.918l-0.66,15.431l-0.074,3.525
	c-1.037-0.025-1.916-0.039-2.639-0.039C90.908,27.752,89.941,27.766,88.246,27.791"/>
<path fill="#58595B" d="M108.889,8.058c1.453,0,2.846,0.218,4.18,0.655c1.332,0.435,2.465,1.08,3.393,1.933
	c0.93,0.854,1.627,1.896,2.094,3.128s0.701,2.531,0.701,3.895c0,1.441-0.246,2.832-0.738,4.172
	c-0.492,1.338-1.207,2.498-2.143,3.477c-0.936,0.98-2.1,1.713-3.496,2.199c-1.398,0.486-2.885,0.729-4.465,0.729
	c-1.467,0-2.859-0.217-4.18-0.652c-1.32-0.438-2.447-1.092-3.383-1.961c-0.936-0.875-1.646-1.934-2.133-3.186
	s-0.73-2.559-0.73-3.923c0-1.39,0.221-2.717,0.664-3.981c0.441-1.264,1.133-2.388,2.076-3.374c0.941-0.986,2.145-1.751,3.611-2.294
	C105.805,8.33,107.322,8.058,108.889,8.058 M108.889,11.963c-1.098,0-2.076,0.268-2.939,0.805c-0.861,0.538-1.504,1.337-1.926,2.398
	c-0.422,1.062-0.631,2.218-0.631,3.469c0,1.101,0.172,2.08,0.518,2.939c0.346,0.857,0.914,1.553,1.699,2.084
	c0.789,0.529,1.723,0.797,2.807,0.797c1.107,0,2.08-0.275,2.916-0.824c0.838-0.553,1.467-1.359,1.889-2.426
	c0.424-1.07,0.635-2.248,0.635-3.537c0-1.048-0.164-2.002-0.492-2.862c-0.328-0.859-0.879-1.547-1.652-2.066
	C110.938,12.222,109.994,11.963,108.889,11.963"/>
<path fill="#58595B" d="M137.605,23.412c-0.063,0.518-0.158,1.105-0.285,1.764c-0.125,0.656-0.26,1.471-0.396,2.445
	c-1.809,0.416-3.59,0.623-5.346,0.623c-1.023,0-2.01-0.094-2.957-0.281c-0.947-0.191-1.83-0.529-2.645-1.016
	c-0.816-0.486-1.533-1.129-2.152-1.924c-0.619-0.797-1.082-1.76-1.393-2.891s-0.465-2.297-0.465-3.498
	c0-1.593,0.256-3.121,0.768-4.587c0.512-1.466,1.26-2.663,2.246-3.593c0.986-0.929,2.082-1.56,3.289-1.895s2.551-0.503,4.027-0.503
	c0.822,0,1.67,0.048,2.541,0.143s1.902,0.288,3.09,0.578l0.285,4.152c-1.881-0.645-3.52-0.967-4.922-0.967
	c-0.855,0-1.668,0.145-2.43,0.436c-0.764,0.291-1.42,0.749-1.969,1.374c-0.549,0.626-0.941,1.349-1.174,2.17
	c-0.232,0.822-0.35,1.662-0.35,2.521c0,1.202,0.188,2.241,0.559,3.118c0.371,0.879,1.012,1.559,1.92,2.039s1.943,0.719,3.102,0.719
	c0.57,0,1.26-0.072,2.072-0.219C135.836,23.977,136.697,23.74,137.605,23.412"/>
<path fill="#58595B" d="M141.473,27.791l0.377-4.928l0.436-9.46l0.207-8.094c0.025-1.465,0.037-2.597,0.037-3.393
	c1.324,0.026,2.262,0.039,2.816,0.039c0.656,0,1.52-0.013,2.592-0.039l-0.396,6.161l-0.453,9.819l-0.189,7.334l-0.018,2.561
	c-1.123-0.025-2.004-0.039-2.646-0.039C143.502,27.752,142.582,27.766,141.473,27.791 M147.5,16.995l3.865-4.695
	c0.328-0.403,0.723-0.902,1.18-1.495c0.457-0.594,1.033-1.357,1.732-2.292c1.313,0.025,2.27,0.038,2.877,0.038
	c0.832,0,1.885-0.013,3.16-0.038l-6.246,7.157l-1.119,1.363c0.922,1.467,3.486,5.053,7.688,10.758
	c-1.139-0.025-2.113-0.039-2.924-0.039c-0.809,0-1.814,0.014-3.016,0.039c-0.736-1.201-1.334-2.166-1.795-2.895
	c-0.463-0.727-0.889-1.363-1.281-1.906l-3.227-4.61C148.305,18.254,148.006,17.792,147.5,16.995"/>
<path fill="#ED1C24" d="M35.298,1.917v1.918c0,0.557-0.026,1.715-0.078,3.475l-0.233,5.127H22.082l0.058-1.972l0.501-8.549
	c-1.438,0.025-2.39,0.038-2.856,0.038c-0.618,0-1.671-0.013-3.159-0.038l0.019,2.085c0,1.25-0.052,3.466-0.154,6.644
	c-0.102,3.177-0.275,6.625-0.518,10.34l-0.441,6.805c1.594-0.025,2.561-0.039,2.902-0.039l3.112,0.039l0.076-4.305l0.269-6.974
	h12.942c-0.089,3.942-0.298,7.702-0.629,11.278c1.732-0.025,2.783-0.039,3.149-0.039l2.96,0.039c0-0.416,0.012-1.549,0.035-3.395
	l0.07-4.49l0.267-7.659l0.168-2.776C36.516,6.844,35.298,1.917,35.298,1.917"/>
<path fill="#ED1C24" d="M81.342,8.513c-0.303,0.822-0.557,1.486-0.758,1.991L76.31,21.336l-0.607,1.652L71.267,8.513
	C70.37,8.538,69.49,8.551,68.63,8.551c-0.81,0-1.771-0.013-2.884-0.038c3.654,10.186,5.901,16.612,6.735,19.278
	c1.188-0.025,2.187-0.039,2.995-0.039c0.771,0,1.725,0.014,2.862,0.039l1.004-2.447l4.47-10.139l0.535-1.163
	C82.147,11.931,81.342,8.513,81.342,8.513"/>
<path fill="#ED1C24" d="M82.633,7.363c0,0,0.334,3.185,2.273,4.6l1.103-7.55L76.742,6.3L82.633,7.363z"/>
<polygon fill="#B11F24" points="76.742,6.3 86.009,4.412 82.633,7.363 "/>
</svg>
